# Blender v2.93.5 OBJ File: 'digital_prototype.blend'
# www.blender.org
mtllib arm_joystick_body.mtl
o Cube.001
v 0.075000 0.100000 0.425000
v 0.075000 0.000000 0.425000
v 0.075000 0.100000 0.575000
v 0.075000 0.000000 0.575000
v -0.075000 0.100000 0.425000
v -0.075000 0.000000 0.425000
v -0.075000 0.100000 0.575000
v -0.075000 0.000000 0.575000
v 0.075000 0.100000 0.425000
v 0.075000 0.100000 0.575000
v -0.075000 0.100000 0.425000
v -0.075000 0.100000 0.575000
v 0.033701 0.100000 0.533701
v -0.033701 0.100000 0.533701
v 0.033701 0.100000 0.466299
v -0.033701 0.100000 0.466299
v 0.033701 0.097673 0.533701
v -0.033701 0.097673 0.533701
v 0.033701 0.097673 0.466299
v -0.033701 0.097673 0.466299
vt 0.375000 0.000000
vt 0.625000 0.000000
vt 0.625000 0.250000
vt 0.375000 0.250000
vt 0.125000 0.500000
vt 0.375000 0.500000
vt 0.375000 0.750000
vt 0.125000 0.750000
vt 0.625000 0.500000
vt 0.625000 0.750000
vt 0.875000 0.750000
vt 0.806168 0.568832
vt 0.806168 0.681168
vt 0.806168 0.681168
vt 0.806168 0.568832
vt 0.693832 0.681168
vt 0.875000 0.750000
vt 0.625000 0.750000
vt 0.693832 0.568832
vt 0.625000 0.500000
vt 0.875000 0.500000
vt 0.693832 0.568832
vt 0.693832 0.681168
vn -1.0000 0.0000 0.0000
vn 0.0000 -1.0000 0.0000
vn 1.0000 0.0000 0.0000
vn 0.0000 0.0000 -1.0000
vn 0.0000 0.0000 1.0000
vn 0.0000 1.0000 0.0000
usemtl Material
s off
f 8/1/1 7/2/1 5/3/1 6/4/1
f 6/5/2 2/6/2 4/7/2 8/8/2
f 2/6/3 1/9/3 3/10/3 4/7/3
f 6/4/4 5/3/4 1/9/4 2/6/4
f 8/8/5 4/7/5 3/10/5 7/11/5
f 16/12/3 14/13/3 18/14/3 20/15/3
f 13/16/6 14/13/6 12/17/6 10/18/6
f 15/19/6 13/16/6 10/18/6 9/20/6
f 14/13/6 16/12/6 11/21/6 12/17/6
f 16/12/6 15/19/6 9/20/6 11/21/6
f 19/22/6 20/15/6 18/14/6 17/23/6
f 14/13/4 13/16/4 17/23/4 18/14/4
f 15/19/5 16/12/5 20/15/5 19/22/5
f 13/16/1 15/19/1 19/22/1 17/23/1
o Cube.009
v 0.065846 0.013564 0.566463
v 0.065846 0.030854 0.566463
v 0.065846 0.013564 0.547530
v 0.065846 0.030854 0.547530
v 0.076733 0.013564 0.566463
v 0.076733 0.030854 0.566463
v 0.076733 0.013564 0.547530
v 0.076733 0.030854 0.547530
vt 0.375000 0.000000
vt 0.625000 0.000000
vt 0.625000 0.250000
vt 0.375000 0.250000
vt 0.625000 0.500000
vt 0.375000 0.500000
vt 0.625000 0.750000
vt 0.375000 0.750000
vt 0.625000 1.000000
vt 0.375000 1.000000
vt 0.125000 0.500000
vt 0.125000 0.750000
vt 0.875000 0.500000
vt 0.875000 0.750000
vn -1.0000 0.0000 0.0000
vn 0.0000 0.0000 -1.0000
vn 1.0000 0.0000 0.0000
vn 0.0000 0.0000 1.0000
vn 0.0000 -1.0000 0.0000
vn 0.0000 1.0000 0.0000
usemtl None
s off
f 21/24/7 22/25/7 24/26/7 23/27/7
f 23/27/8 24/26/8 28/28/8 27/29/8
f 27/29/9 28/28/9 26/30/9 25/31/9
f 25/31/10 26/30/10 22/32/10 21/33/10
f 23/34/11 27/29/11 25/31/11 21/35/11
f 28/28/12 24/36/12 22/37/12 26/30/12
